<svg x="0px" y="0px" viewBox="0 0 220 103" width="220" height="103">
<g color="#002835">
<path class="st0" fill="currentcolor" d="M26.3,49.1h-1.9c-0.3,0-0.6,0.2-0.6,0.5v15.1c0,0.3,0.3,0.5,0.6,0.5h1.9c0.3,0,0.6-0.2,0.6-0.5v-7.2l6,7.5
c0,0.2,0.2,0.2,0.3,0.2h2.5c0.5,0,0.6-0.5,0.5-0.8l-6.5-7.6l6-6.8c0.3-0.3,0-0.8-0.3-0.8h-2.4c-0.2,0-0.3,0-0.5,0.2l-5.7,6.5v-6.2
C26.9,49.2,26.6,49.1,26.3,49.1"></path>
<path class="st0" fill="currentcolor" d="M57.1,49.1H55c-0.3,0-0.5,0.2-0.5,0.3v9.7c0,3.5,2.7,6.4,6.4,6.4c3.7,0,6.4-2.9,6.4-6.4v-9.7
c0-0.2-0.2-0.3-0.3-0.3h-2.2c-0.3,0-0.5,0.2-0.5,0.3v9.5c0,1.9-1.3,3.5-3.3,3.5c-2.1,0-3.3-1.6-3.3-3.5v-9.5
C57.6,49.2,57.4,49.1,57.1,49.1"></path>
<path class="st0" fill="currentcolor" d="M97,49.4c0-0.2-0.2-0.3-0.5-0.3H87c-0.2,0-0.5,0.2-0.5,0.5v1.9c0,0.2,0.3,0.3,0.5,0.3h5.7v0.2l-6.8,12.4v0.3
c0,0.3,0.3,0.5,0.5,0.5h9.2c0.2,0,0.5-0.5,0.5-0.5l0.6-1.9c0-0.2-0.3-0.3-0.5-0.3h-5.9v-0.2L97,49.7V49.4z"></path>
<path class="st0" fill="currentcolor" d="M220.3,75.8V15.5h-85.3c-6.5,0-12.3,4.1-14.3,10.3l-0.5,1.4H0v60.1h109.1L112,79l-4.1-0.2l-1.6,4.6H4.1V31.2
H119l-15,44.5H220.3z M188.4,37.3c0-0.3,0.2-0.5,0.3-0.5h9.4c0.3,0,0.5,0.2,0.5,0.5V39c0,0.3-0.2,0.5-0.5,0.5h-6.8v3.8h5.7
c0.3,0,0.5,0.2,0.5,0.5v1.9c0,0.2-0.2,0.3-0.5,0.3h-5.7v4.1h6.8c0.3,0,0.5,0.2,0.5,0.5v1.7c0,0.3-0.2,0.5-0.5,0.5h-9.4
c-0.2,0-0.3-0.2-0.3-0.5V37.3z M160.5,37.3c0-0.3,0.2-0.5,0.5-0.5h2.1c0.3,0,0.5,0.2,0.5,0.5v12.9h5.9c0.2,0,0.5,0.2,0.5,0.5v1.7
c0,0.3-0.3,0.5-0.5,0.5H161c-0.3,0-0.5-0.2-0.5-0.5V37.3z M130.5,52.1l6.8-12.4v-0.2h-5.7c-0.2,0-0.5-0.2-0.5-0.3l0.6-1.9
c0,0,0.3-0.5,0.5-0.5h9.1c0.2,0,0.5,0.2,0.5,0.5v0.2L134.9,50v0.2h5.9c0.2,0,0.5,0.2,0.5,0.3v1.9c0,0.3-0.3,0.5-0.5,0.5h-9.9
c-0.2,0-0.5-0.2-0.5-0.5V52.1z"></path>
</g>
</svg>
